<?xml version="1.0"?>
<svg width="768" height="768" xmlns="http://www.w3.org/2000/svg" xmlns:svg="http://www.w3.org/2000/svg" version="1.1">
 <style>svg {background-color: white; }</style>&quot;
 <metadata id="metadata1">Created by https://svgstud.io and licensed under CC-BY-SA 4.0 license. Please attribute https://svgstud.io</metadata>
 <metadata id="prompt">text SINKA</metadata>
 <metadata id="version">7</metadata>
 <metadata id="metadata2">https://svgstud.io</metadata>
 <metadata id="uid">e4fd623711a1b5d1cba161952cb89172b70b78911bd4881c79ed83a7369bef05</metadata>
 <g class="layer">
  <title>Layer 1</title>
  <path d="m404,614.24c-1.38,0.26 -3.4,0.3 -4.5,0.08c-1.1,-0.22 -3.02,-0.62 -4.28,-0.88c-1.25,-0.27 -4.08,-2.12 -6.29,-4.12c-2.21,-2 -7.03,-7.27 -10.71,-11.73c-3.68,-4.45 -11.63,-13.94 -17.66,-21.09c-6.03,-7.15 -17.31,-20.42 -25.06,-29.5c-7.75,-9.08 -23.73,-27.75 -35.51,-41.5c-11.78,-13.75 -31.11,-36.05 -42.95,-49.56c-11.85,-13.51 -25.36,-28.97 -30.04,-34.34c-4.68,-5.38 -9.4,-11.43 -10.49,-13.44c-1.72,-3.16 -1.99,-5.58 -2,-17.87c-0.01,-12.33 0.23,-14.45 1.78,-16c1.46,-1.46 3.42,-1.78 10.5,-1.74c7.79,0.05 9.66,0.46 17.71,3.88c4.95,2.11 10.36,4.03 12.02,4.28c2.84,0.43 3.33,-0.03 7.99,-7.38c2.72,-4.31 9.91,-15.36 15.97,-24.57c6.06,-9.21 17.09,-26.19 24.52,-37.73c7.43,-11.55 25.37,-38.89 39.88,-60.76c14.51,-21.87 32.03,-48.09 38.94,-58.27c6.91,-10.18 17.92,-26.15 24.46,-35.5c6.55,-9.35 13.33,-18.5 15.07,-20.34c1.73,-1.83 4.44,-4 6.01,-4.83c1.59,-0.83 5.39,-1.48 8.59,-1.46c3.16,0.01 7.59,0.76 9.84,1.66c2.25,0.9 4.9,2.84 5.9,4.3c1.62,2.39 1.92,6.76 2.84,42.17c1.04,39.5 1.04,39.5 19.17,80c9.97,22.27 22.49,49.95 27.82,61.5c5.33,11.55 12.83,27.98 16.67,36.5c3.83,8.52 7.6,16.15 8.36,16.94c0.77,0.79 4.45,1.76 8.19,2.16c3.73,0.4 8.01,1.28 9.49,1.96c1.71,0.78 3.15,2.56 3.9,4.83c0.86,2.62 1.01,11.58 0.55,33.33c-0.48,22.23 -1,30.57 -2.05,33.01c-0.78,1.8 -5.62,7.78 -10.77,13.29c-5.15,5.51 -15.46,16.76 -22.92,25c-7.45,8.24 -19.18,21.5 -26.06,29.48c-6.87,7.98 -17.89,21.02 -24.49,29c-6.59,7.98 -15.89,19.32 -20.66,25.22c-4.76,5.9 -13.48,16.92 -19.37,24.5c-5.89,7.58 -11.41,14.36 -12.28,15.06c-0.87,0.71 -2.48,1.89 -3.58,2.64c-1.1,0.74 -3.12,1.56 -4.5,1.82zm3.12,-25.19c1.03,-1.7 3.5,-6.34 5.5,-10.32c1.99,-3.98 7.32,-13.75 11.85,-21.73c4.53,-7.98 12.88,-22.83 18.55,-33c5.67,-10.17 16.48,-29.3 24.02,-42.5c7.53,-13.2 20.24,-35.02 28.24,-48.5c7.99,-13.48 18.03,-29.82 22.31,-36.32c4.27,-6.5 7.8,-12.76 7.84,-13.9c0.04,-1.14 -0.46,-2.26 -1.11,-2.49c-0.64,-0.22 -8.33,6.71 -17.08,15.4c-8.75,8.7 -26.63,27.06 -39.73,40.81c-13.11,13.75 -27.89,29.61 -32.85,35.25c-7.44,8.46 -9.52,10.25 -11.85,10.25c-1.55,0 -7.88,-2.64 -14.07,-5.88c-6.18,-3.23 -17.76,-9.68 -25.74,-14.34c-7.98,-4.66 -19.9,-11.52 -26.5,-15.26c-6.6,-3.73 -15.38,-8.7 -19.5,-11.05c-4.12,-2.35 -14.48,-8.07 -23,-12.71c-8.52,-4.64 -25.62,-13.65 -38,-20.01c-12.38,-6.36 -26.32,-13.12 -31,-15.02c-4.68,-1.91 -10.19,-3.77 -12.25,-4.14c-2.06,-0.37 -3.75,-0.31 -3.75,0.14c0,0.45 4.16,4.43 9.25,8.85c5.09,4.41 15.35,14.55 22.81,22.54c7.45,7.98 19.15,20.81 26,28.5c6.84,7.7 20.8,23.87 31.01,35.94c10.22,12.07 27.78,33.42 39.03,47.44c11.25,14.02 24.55,30.9 29.56,37.5c5.01,6.6 11.24,15.52 13.84,19.82c4.74,7.82 4.74,7.82 6.62,4.73zm19.02,-118.05c0.99,0 2.36,-1.7 3.43,-4.25c1.63,-3.89 1.81,-9.39 2.1,-64.75c0.18,-33.27 0.44,-104.9 0.58,-159.16c0.15,-54.26 -0.11,-98.43 -0.56,-98.15c-0.45,0.28 -3.2,3.73 -6.09,7.66c-2.9,3.93 -6.85,9.4 -8.79,12.15c-1.93,2.75 -7.32,10.4 -11.96,17c-4.65,6.6 -17.03,24.82 -27.51,40.5c-10.49,15.68 -25.16,37.73 -32.61,49c-7.44,11.27 -18.81,28.82 -25.25,39c-6.44,10.18 -14.43,22.77 -17.76,28c-3.33,5.23 -10.34,16.02 -15.59,24c-5.25,7.98 -11.2,16.78 -13.23,19.57c-3.57,4.9 -3.63,5.12 -1.73,6.3c1.08,0.68 6,2.98 10.92,5.12c8.95,3.88 8.95,3.88 10.34,1.69c0.76,-1.2 11.04,-19.06 22.84,-39.68c11.8,-20.62 26.61,-46.27 32.93,-57c6.31,-10.73 15.99,-27.38 21.52,-37c5.52,-9.62 13.75,-23.57 18.29,-31c4.54,-7.43 10.97,-17.55 14.28,-22.5c3.31,-4.95 6.74,-10 7.62,-11.22c0.87,-1.22 1.93,-2.23 2.34,-2.25c0.41,-0.02 0.75,0.68 0.75,1.55c0,0.86 -1.87,6.37 -4.15,12.25c-2.29,5.87 -13.3,28.89 -24.48,51.17c-11.18,22.27 -24.29,47.93 -29.15,57c-4.86,9.07 -11.46,21.45 -14.67,27.5c-3.22,6.05 -8.55,15.95 -11.85,22c-3.3,6.05 -9.76,17.44 -14.37,25.32c-4.6,7.88 -8.09,14.76 -7.76,15.29c0.32,0.53 9.12,5.23 19.53,10.44c18.95,9.48 18.95,9.48 21.13,5.72c1.21,-2.07 7.19,-11.2 13.31,-20.27c6.12,-9.07 14.19,-21 17.94,-26.5c3.75,-5.5 9.74,-14.27 13.31,-19.5c3.57,-5.23 8.54,-12.31 11.04,-15.75c2.51,-3.44 4.92,-6.25 5.36,-6.25c0.45,0 0.81,0.15 0.81,0.32c0,0.18 -1.06,3.45 -2.36,7.25c-1.29,3.81 -4.66,11.81 -7.47,17.78c-2.82,5.96 -9.48,19.01 -14.81,29c-5.32,9.98 -12.98,23.85 -17.02,30.82c-4.04,6.97 -7.6,13.36 -7.93,14.19c-0.43,1.13 1.36,2.5 6.75,5.2c4.04,2.03 15.21,7.98 24.83,13.24c9.62,5.26 21.1,11.73 25.5,14.38c4.41,2.65 8.75,4.82 9.65,4.82z" fill="black" fill-rule="evenodd" id="svg_1"/>
 </g></svg>